<svg width="40" height="40" viewBox="0 0 40 40" fill="none" xmlns="http://www.w3.org/2000/svg">
<circle cx="20" cy="20" r="20" fill="#E7E7E7"/>
<path d="M20.18 21.17C20.0605 21.155 19.9395 21.155 19.82 21.17C18.5479 21.1272 17.3423 20.5915 16.4578 19.6763C15.5734 18.761 15.0793 17.5378 15.08 16.265C15.08 13.55 17.27 11.345 20 11.345C21.2892 11.3427 22.5276 11.8472 23.4483 12.7496C24.3689 13.652 24.8981 14.88 24.9217 16.169C24.9453 17.4579 24.4615 18.7045 23.5745 19.64C22.6875 20.5755 21.4684 21.125 20.18 21.17ZM30.11 31.07C27.3534 33.6036 23.7441 35.0066 20 35C16.1 35 12.56 33.515 9.89001 31.07C10.04 29.66 10.94 28.28 12.545 27.2C16.655 24.47 23.375 24.47 27.455 27.2C29.06 28.28 29.96 29.66 30.11 31.07Z" stroke="#FFD31D" stroke-width="1.5" stroke-linecap="round" stroke-linejoin="round"/>
<path d="M20 35C28.2845 35 35 28.2845 35 20C35 11.7155 28.2845 5 20 5C11.7155 5 5 11.7155 5 20C5 28.2845 11.7155 35 20 35Z" stroke="#FFD31D" stroke-width="1.5" stroke-linecap="round" stroke-linejoin="round"/>
</svg>
