<svg width="16" height="16" viewBox="0 0 16 16" fill="none" xmlns="http://www.w3.org/2000/svg">
<path d="M8 8.95333C8.27315 8.95333 8.54362 8.89953 8.79598 8.795C9.04834 8.69047 9.27763 8.53726 9.47078 8.34412C9.66393 8.15097 9.81714 7.92167 9.92167 7.66932C10.0262 7.41696 10.08 7.14648 10.08 6.87334C10.08 6.60019 10.0262 6.32971 9.92167 6.07735C9.81714 5.825 9.66393 5.5957 9.47078 5.40255C9.27763 5.20941 9.04834 5.0562 8.79598 4.95167C8.54362 4.84714 8.27315 4.79333 8 4.79333C7.44835 4.79333 6.91929 5.01248 6.52922 5.40255C6.13914 5.79263 5.92 6.32168 5.92 6.87334C5.92 7.42499 6.13914 7.95404 6.52922 8.34412C6.91929 8.73419 7.44835 8.95333 8 8.95333Z" stroke="#FFD31D" stroke-width="1.5"/>
<path d="M2.41333 5.66004C3.72667 -0.113291 12.28 -0.106624 13.5867 5.66671C14.3533 9.05338 12.2467 11.92 10.4 13.6934C9.75472 14.3157 8.89317 14.6635 7.99667 14.6635C7.10016 14.6635 6.23862 14.3157 5.59333 13.6934C3.75333 11.92 1.64667 9.04671 2.41333 5.66004Z" stroke="#FFD31D" stroke-width="1.5"/>
</svg>
