<svg width="112" height="123" viewBox="0 0 112 123" fill="none" xmlns="http://www.w3.org/2000/svg">
<path d="M6 28.1911H17.0956H105.86" stroke="black" stroke-width="11.0956" stroke-linecap="round" stroke-linejoin="round"/>
<path d="M94.7647 28.1911V105.86C94.7647 108.803 93.5957 111.625 91.5149 113.706C89.4341 115.787 86.6119 116.956 83.6691 116.956H28.1913C25.2485 116.956 22.4263 115.787 20.3455 113.706C18.2647 111.625 17.0957 108.803 17.0957 105.86V28.1911M33.7391 28.1911V17.0956C33.7391 14.1528 34.9081 11.3306 36.9889 9.24982C39.0697 7.16899 41.8919 6 44.8346 6H67.0258C69.9685 6 72.7907 7.16899 74.8715 9.24982C76.9523 11.3306 78.1213 14.1528 78.1213 17.0956V28.1911" stroke="black" stroke-width="11.0956" stroke-linecap="round" stroke-linejoin="round"/>
<path d="M44.8345 55.9301V89.2168" stroke="black" stroke-width="11.0956" stroke-linecap="round" stroke-linejoin="round"/>
<path d="M67.0254 55.9301V89.2168" stroke="black" stroke-width="11.0956" stroke-linecap="round" stroke-linejoin="round"/>
</svg>
